<!-- icon666.com - MILLIONS vector ICONS FREE --><svg id="Flat" viewBox="0 0 64 64" xmlns="http://www.w3.org/2000/svg"><path d="m13.707 31.879h2v5.657h-2z" fill="#03b3e2" transform="matrix(.707 -.707 .707 .707 -20.234 20.565)"></path><path d="m11.121 35a2.122 2.122 0 0 1 -2.121-2.121v-3.879h3.879a2.122 2.122 0 0 1 2.121 2.121 2.12 2.12 0 0 1 -.621 1.5l-1.758 1.758a2.12 2.12 0 0 1 -1.5.621z" fill="#35d7fd"></path><path d="m20 27.983h2v6h-2z" fill="#03b3e2"></path><path d="m22.343 29h-2.343a2 2 0 0 1 -1.414-.586 2 2 0 0 1 0-2.828l2.586-2.586 2.585 2.586a2 2 0 0 1 0 2.828 2 2 0 0 1 -1.414.586z" fill="#35d7fd"></path><path d="m28 52 7 7h8v-1a3 3 0 0 0 -3-3h-2l-4-4z" fill="#7dd491"></path><path d="m37 56-4.714-4.714-4.286.714 7 7h8v-1a2.977 2.977 0 0 0 -.78-2z" fill="#58a066"></path><path d="m42 39h6.765l.001-4h-7.766z" fill="#58a066"></path><path d="m29 3h24.99a5.01 5.01 0 0 1 5.01 5.01v16.99a0 0 0 0 1 0 0h-30a0 0 0 0 1 0 0v-22a0 0 0 0 1 0 0z" fill="#c6ec6b"></path><circle cx="39" cy="13" fill="#fff" r="5"></circle><circle cx="41" cy="15" fill="#895e7a" r="2"></circle><circle cx="41" cy="15" fill="#e94561" r="1"></circle><path d="m29.243 53h-1.758a20.484 20.484 0 0 1 -14.485-6 14.443 14.443 0 0 1 -9.556-8.817l-.444-1.183a18.949 18.949 0 0 0 8.472 2h1.528a16.716 16.716 0 0 1 13.6-7h2.4v-7h11v7a10.242 10.242 0 0 1 3 7.243 13.757 13.757 0 0 1 -13.757 13.757z" fill="#c6ec6b"></path><path d="m40.68 32.75a10.245 10.245 0 0 1 .32 2.493 13.757 13.757 0 0 1 -13.757 13.757h-1.758a20.484 20.484 0 0 1 -14.485-6 14.432 14.432 0 0 1 -7.854-5.611l.3.794a14.443 14.443 0 0 0 9.554 8.817 20.484 20.484 0 0 0 14.485 6h1.758a13.757 13.757 0 0 0 13.757-13.757 10.249 10.249 0 0 0 -2.32-6.493z" fill="#ffe8ae"></path><path d="m25 57h-3l-3-3 2-2a4 4 0 0 0 4-4v-3a4 4 0 0 0 -4-4h-1a4 4 0 0 0 -4 4v3l-3 6 7 7h8v-1a3 3 0 0 0 -3-3z" fill="#7dd491"></path><path d="m22 60-7-7 3-6v-3a3.979 3.979 0 0 1 1.293-2.929 3.994 3.994 0 0 0 -3.293 3.929v3l-3 6 7 7h8v-1z" fill="#58a066"></path><path d="m53 20h2v2h-2z" fill="#58a066"></path><path d="m42.765 48h-7.827a1.937 1.937 0 0 1 -1.938-1.938v-4.062a2 2 0 0 1 2-2 2 2 0 0 1 2 2v2h5.766z" fill="#7dd491"></path><path d="m36.938 46a1.937 1.937 0 0 1 -1.938-1.938v-4.062a2 2 0 0 0 -2 2v4.062a1.937 1.937 0 0 0 1.938 1.938h7.827v-2z" fill="#58a066"></path><g fill="#7dd491"><path d="m24 37h2v2h-2z"></path><path d="m26 35h2v2h-2z"></path><path d="m22 35h2v2h-2z"></path></g><path d="m51 41a4 4 0 1 1 2.666-6.982l-1.332 1.492a2 2 0 1 0 0 2.98l1.332 1.492a3.994 3.994 0 0 1 -2.666 1.018z" fill="#35d7fd"></path><path d="m45 50a4 4 0 1 1 2.666-6.982l-1.332 1.492a2 2 0 1 0 0 2.98l1.332 1.492a3.994 3.994 0 0 1 -2.666 1.018z" fill="#35d7fd"></path><path d="m59 25h-30v-22h4v9.874a10.125 10.125 0 0 0 10.126 10.126h15.874z" fill="#7dd491"></path><path d="m29 8a5 5 0 0 0 5-5h-5z" fill="#ffe8ae"></path><path d="m29 3v5a4.952 4.952 0 0 0 2.563-.728z" fill="#ffd257"></path><path d="m40 25h-11v7l.568.473a7.742 7.742 0 0 0 10.432-.473z" fill="#7dd491"></path><path d="m37 25a4 4 0 1 0 -4 4h24v-4z" fill="#ffe8ae"></path></svg>